# xmcd
# 
# Track frame offsets:
#	150
#	11882
#	26695
#	40516
#	55761
#	68873
#	85560
#	99462
#	112134
#	130205
#	146892
#
# Disc length: 2136 seconds
#
# Revision: 1
# Processed by: cddbd v1.4PL0 Copyright (c) Steve Scherf et al.
# Submitted via: Audio-CD-Archiv 2.10.441
#
DISCID=9308560b
DTITLE=Rubber Duck - Die 3.
DYEAR=1900
DGENRE=country
TTITLE0=Morgens fällt mir alles schwer
TTITLE1=Fehler hat jeder
TTITLE2=Sag niemal nie
TTITLE3=Truck Stop
TTITLE4=Oma Hildegard
TTITLE5=Ich muß weiterziehen
TTITLE6=Ein kleiner Song
TTITLE7=Dich berühren
TTITLE8=Nach Haus
TTITLE9=Tausendmal und mehr
TTITLE10=Reisefieber
EXTD=
EXTT0=
EXTT1=
EXTT2=
EXTT3=
EXTT4=
EXTT5=
EXTT6=
EXTT7=
EXTT8=
EXTT9=
EXTT10=
PLAYORDER=
